<svg xmlns="http://www.w3.org/2000/svg" viewBox="0 0 923.03 619.18"><defs><style>.cls-1{fill:#dcf2fa;}.cls-2{fill:#2f2e41;}.cls-3{opacity:0.1;}.cls-12,.cls-15,.cls-3,.cls-7{isolation:isolate;}.cls-4{fill:#3f3d56;}.cls-5,.cls-7{fill:#6c63ff;}.cls-6{fill:#57b894;}.cls-7{opacity:0.3;}.cls-12,.cls-15,.cls-8{opacity:0.2;}.cls-12,.cls-9{fill:#f2f2f2;}.cls-10,.cls-11,.cls-13{fill:none;stroke-miterlimit:10;}.cls-10{stroke:#f2f2f2;stroke-width:0.1px;}.cls-11{stroke:#6c63ff;}.cls-13{stroke:#3f3d56;stroke-width:4px;}.cls-14{fill:#656380;}.cls-16{fill:#ffc0c6;}.cls-17{fill:#575a88;}</style></defs><title>hero-img</title><g id="Layer_2" data-name="Layer 2"><g id="e4110a9f-f3dd-43c7-a69f-77d1c85ae255"><path class="cls-1" d="M181.23,394.55l-5.1-3.26c-.49-.31-1-.65-1.45-1,26.43-4.68,44.18-30.53,39.64-57.75a49.52,49.52,0,0,0-34.74-39.69l.26,20.61-11-22.41h-.16c-26.78-1.29-49.51,20-50.76,47.61h0c-.05,1,0,1.89,0,2.84a60.23,60.23,0,0,1-9.6-14.6c-4.65-10.68-4.73-22.8-4.37-37.51.73-29.16,2-58.54,3.55-87.83,23.71-2.72,42-22.78,43.12-47.32.06-1.53,0-3,0-4.53a6.89,6.89,0,0,0-.06-1.12c-.1-1.46-.23-2.89-.45-4.31a4,4,0,0,0-.12-.69c-.19-1.2-.44-2.39-.71-3.57l-.33-1.31c-.34-1.27-.71-2.5-1.15-3.77-.14-.4-.31-.83-.47-1.21q-.51-1.38-1.11-2.7c-.21-.47-.41-.94-.63-1.4-.07-.12-.11-.24-.17-.36h0c-10.58-21.52-34.58-32.19-57-25.34l.32,26.81L77.84,108.64c-18.34,10.82-27.73,32.67-23.16,53.93h0c.08.36.18.69.26,1.05.16.66.32,1.32.5,2,.23.83.49,1.67.75,2.5.21.61.4,1.23.63,1.84.33.89.7,1.75,1.08,2.61.22.5.41,1,.65,1.51a42.6,42.6,0,0,0,2,3.78c.25.44.53.84.81,1.27.52.83,1,1.67,1.62,2.44.35.5.72,1,1.09,1.45.53.69,1.08,1.38,1.62,2,.4.47.81.92,1.22,1.38.6.65,1.21,1.27,1.85,1.89.41.41.81.84,1.27,1.22.71.65,1.46,1.28,2.21,1.89.39.3.76.63,1.15.93,1.15.83,2.33,1.67,3.56,2.5.23.15.48.27.7.41,1,.62,2.07,1.21,3.14,1.75.47.23.94.43,1.41.65a26.19,26.19,0,0,0,2.67,1.15c.52.21,1.06.4,1.62.6.89.3,1.8.59,2.72.83.53.15,1.07.31,1.62.44,1,.25,2,.45,3,.63l.2,0q-1,18.53-1.79,37.09c-11.71-24.82-40.74-35.16-64.84-23.09-.86.43-1.71.88-2.54,1.37l8.58,24.22L15.75,223.39a51.13,51.13,0,0,0-14.46,48.3C7.41,298.57,33.53,315.26,59.63,309a48.7,48.7,0,0,0,30.94-23.64c0,1.25-.08,2.5-.11,3.76-.33,13-.74,29.14,5.55,43.57,4.26,9.77,11.11,17.71,17.85,24.83,4.4,4.63,9,9.11,13.65,13.45a49,49,0,0,0,17.54,15c7.69,6.1,15.65,11.84,23.88,17.14l5.15,3.29c4.62,3,9.36,6,14,9.13-.81-.08-1.62-.17-2.44-.22-21.12-1-40.45,12.16-47.81,32.58l30.34,25.43-33.37-8c0,27.63,21.81,50,48.64,50a47.37,47.37,0,0,0,21-4.93c-.74,1-1.49,1.93-2.25,2.89-1.49,1.91-3,3.81-4.42,5.7-19.75,25.75-25.24,50.2-15.46,68.84l11.89-6.62c-9.52-18.14,4.79-41.36,14.17-53.59,1.43-1.87,2.88-3.73,4.35-5.6,12.63-16.18,26.92-34.46,26.57-56.91C238.73,431.26,206.82,410.91,181.23,394.55Z"/><path class="cls-1" d="M650.9,292.63l5.1-3.26c.49-.31,1-.64,1.45-1-26.43-4.69-44.16-30.55-39.61-57.77A49.5,49.5,0,0,1,652.59,191l-.26,20.61,11-22.41h.13c26.79-1.29,49.51,20,50.76,47.61h0c0,1,0,1.89,0,2.84a59.9,59.9,0,0,0,9.59-14.6c4.65-10.68,4.74-22.79,4.37-37.51-.73-29.16-2-58.54-3.54-87.83-23.71-2.72-42-22.77-43.12-47.32-.07-1.53,0-3,0-4.53a8.32,8.32,0,0,1,.05-1.12c.1-1.46.23-2.89.45-4.31a4,4,0,0,1,.12-.69c.2-1.2.44-2.39.72-3.56.1-.44.21-.84.32-1.32.34-1.27.71-2.5,1.15-3.76.15-.41.32-.84.47-1.22.34-.91.72-1.82,1.11-2.7.22-.47.42-.94.64-1.4.06-.11.1-.24.17-.36h0c10.57-21.51,34.55-32.17,57-25.35l-.33,26.82L754.28,6.71C772.63,17.53,782,39.39,777.45,60.65h0c-.08.36-.18.7-.26,1.06-.16.65-.32,1.31-.5,2-.23.83-.49,1.67-.75,2.5-.21.61-.4,1.23-.63,1.84-.33.89-.7,1.75-1.08,2.61-.22.5-.41,1-.65,1.51-.61,1.3-1.28,2.56-2,3.79-.25.43-.53.83-.81,1.26-.52.83-1,1.67-1.62,2.44-.35.5-.72,1-1.09,1.45-.53.69-1.08,1.38-1.62,2-.4.47-.81.93-1.22,1.38-.6.65-1.21,1.27-1.85,1.89-.41.41-.81.84-1.27,1.22-.71.65-1.46,1.28-2.21,1.89-.39.3-.76.63-1.15.93-1.15.83-2.33,1.67-3.56,2.46-.23.15-.48.27-.7.41-1,.62-2.07,1.2-3.14,1.75-.47.23-.94.43-1.41.65a28.62,28.62,0,0,1-2.67,1.15c-.52.21-1.06.4-1.62.6-.89.3-1.8.59-2.72.83-.53.15-1.07.31-1.62.44-1,.25-2,.45-3,.63h-.2q1,18.54,1.79,37.08c11.71-24.81,40.74-35.15,64.84-23.08.86.43,1.71.88,2.54,1.36l-8.58,24.23,17.66-17.46a51.15,51.15,0,0,1,14.45,48.3c-6.12,26.88-32.23,43.57-58.33,37.27a48.68,48.68,0,0,1-30.94-23.64c0,1.25.08,2.5.11,3.77.32,13,.73,29.13-5.56,43.56-4.26,9.78-11.1,17.71-17.84,24.83q-6.62,7-13.65,13.45a49.11,49.11,0,0,1-17.54,15c-7.69,6.1-15.66,11.84-23.89,17.14L658,304.48c-4.63,2.95-9.36,6-14,9.13.81-.08,1.62-.17,2.43-.22,21.12-1,40.46,12.17,47.81,32.59L663.94,371.4l33.37-8c0,27.63-21.81,50-48.64,50a47.38,47.38,0,0,1-21-4.94c.75,1,1.5,1.94,2.25,2.89,1.5,1.91,3,3.81,4.43,5.7,19.74,25.75,25.23,50.2,15.46,68.84l-11.9-6.62c9.52-18.13-4.79-41.36-14.17-53.59-1.42-1.87-2.87-3.73-4.34-5.6-12.62-16.14-26.91-34.43-26.56-56.87C593.4,329.34,625.28,309,650.9,292.63Z"/><ellipse class="cls-1" cx="521.37" cy="591.62" rx="401.67" ry="27.57"/><polygon class="cls-2" points="534.86 592.45 390.31 590.55 390.74 586.73 397.73 523.75 524.67 523.75 534 586.73 534.72 591.5 534.86 592.45"/><polygon class="cls-3" points="534.72 591.5 462.58 591.5 390.31 590.55 390.74 586.73 534 586.73 534.72 591.5"/><rect class="cls-4" x="366.22" y="587.68" width="191.8" height="4.77"/><path class="cls-4" d="M741,145.47A12.25,12.25,0,0,0,729,133H193.39a12.24,12.24,0,0,0-12,12.48h0V479.85H741Z"/><path class="cls-4" d="M181.39,476.51v39.17a12.18,12.18,0,0,0,12,12.36H729a12.19,12.19,0,0,0,12-12.36V476.51Z"/><rect class="cls-2" x="204.54" y="153.98" width="516.08" height="300.59"/><path class="cls-5" d="M464,513.18a12.38,12.38,0,0,0,9.84-4.92h0a12.16,12.16,0,0,0,1-1.48l-6.86-1.16,7.42.06a13.29,13.29,0,0,0,.25-10.21l-10,5.32,9.18-7a12.32,12.32,0,0,0-17.1-4.66,13.1,13.1,0,0,0-4.52,17.62,11.86,11.86,0,0,0,1,1.46h0A12.35,12.35,0,0,0,464,513.18Z"/><polygon class="cls-3" points="476.48 528.04 534.15 587.68 525.3 528.04 476.48 528.04"/><path class="cls-6" d="M631.36,568.74l15.53-9.35A38.57,38.57,0,0,0,639,549.6L609.66,559l23-13.91c-18.08-10.19-40.75-3.37-50.65,15.24a39.3,39.3,0,0,0-4.59,18.47c0,21.23,16.71,22,37.31,22S652,600,652,578.79a39.32,39.32,0,0,0-3.19-15.59Z"/><path class="cls-3" d="M635.32,589.38a29.82,29.82,0,0,0-5.51-4.46c-2.82-1.93-5.74-3.89-9.06-4.55-2.91-.57-5.93-.09-8.92-.26a20.51,20.51,0,0,1-13.64-6.44c-2.13-2.25-3.79-5-6.34-6.76a13.6,13.6,0,0,0-9.49-1.79,22.82,22.82,0,0,0-2.82.6,39.54,39.54,0,0,0-2.21,13c0,21.23,16.71,22,37.32,22,10,0,19.08-.17,25.78-2.78l-1.11-2.15A30.43,30.43,0,0,0,635.32,589.38Z"/><rect class="cls-7" x="227.47" y="269.95" width="17.16" height="5.36"/><rect class="cls-7" x="685.24" y="270.1" width="17.16" height="5.36"/><rect class="cls-7" x="227.62" y="307.65" width="17.16" height="5.36"/><rect class="cls-7" x="227.78" y="345.35" width="17.16" height="5.36"/><rect class="cls-7" x="227.93" y="383.04" width="17.16" height="5.36"/><g class="cls-8"><rect class="cls-9" x="244.62" y="272.53" width="4.87" height="0.21"/><path class="cls-9" d="M670.5,272.74h-9.56v-.21h9.56Zm-19.13,0h-9.56v-.21h9.56Zm-19.14,0h-9.57v-.21h9.57Zm-19.13,0h-9.57v-.21h9.57Zm-19.14,0h-9.57v-.21H594Zm-19.14,0h-9.56v-.21h9.56Zm-19.14,0h-9.57v-.21h9.57Zm-19.13,0H527v-.21h9.57Zm-19.14,0h-9.57v-.21h9.57Zm-19.14,0h-9.56v-.21h9.56Zm-19.13,0h-9.58v-.21h9.58Zm-19.14,0h-9.57v-.21H460Zm-19.13,0h-9.58v-.21h9.58Zm-19.15,0h-9.56v-.21h9.56Zm-19.13,0H393v-.21h9.57Zm-19.14,0h-9.54v-.21h9.57Zm-19.13,0h-9.57v-.21h9.57Zm-19.15,0h-9.56v-.21h9.56Zm-19.13,0h-9.56v-.21h9.58Zm-19.14,0h-9.57v-.21h9.57Zm-19.13,0H278.2v-.21h9.57Zm-19.14,0h-9.57v-.21h9.57Z"/><rect class="cls-9" x="680.08" y="272.53" width="4.87" height="0.21"/><rect class="cls-9" x="244.62" y="272.53" width="4.87" height="0.21"/><path class="cls-9" d="M670.5,272.74h-9.56v-.21h9.56Zm-19.13,0h-9.56v-.21h9.56Zm-19.14,0h-9.57v-.21h9.57Zm-19.13,0h-9.57v-.21h9.57Zm-19.14,0h-9.57v-.21H594Zm-19.14,0h-9.56v-.21h9.56Zm-19.14,0h-9.57v-.21h9.57Zm-19.13,0H527v-.21h9.57Zm-19.14,0h-9.57v-.21h9.57Zm-19.14,0h-9.56v-.21h9.56Zm-19.13,0h-9.58v-.21h9.58Zm-19.14,0h-9.57v-.21H460Zm-19.13,0h-9.58v-.21h9.58Zm-19.15,0h-9.56v-.21h9.56Zm-19.13,0H393v-.21h9.57Zm-19.14,0h-9.54v-.21h9.57Zm-19.13,0h-9.57v-.21h9.57Zm-19.15,0h-9.56v-.21h9.56Zm-19.13,0h-9.56v-.21h9.58Zm-19.14,0h-9.57v-.21h9.57Zm-19.13,0H278.2v-.21h9.57Zm-19.14,0h-9.57v-.21h9.57Z"/><rect class="cls-9" x="680.08" y="272.53" width="4.87" height="0.21"/></g><rect class="cls-7" x="227.47" y="232.35" width="17.16" height="5.36"/><rect class="cls-7" x="685.24" y="232.51" width="17.16" height="5.36"/><g class="cls-8"><rect class="cls-9" x="244.62" y="234.93" width="4.87" height="0.21"/><path class="cls-9" d="M670.5,235.14h-9.56v-.21h9.56Zm-19.13,0h-9.56v-.21h9.56Zm-19.14,0h-9.57v-.21h9.57Zm-19.13,0h-9.57v-.21h9.57Zm-19.14,0h-9.57v-.21H594Zm-19.14,0h-9.56v-.21h9.56Zm-19.14,0h-9.57v-.21h9.57Zm-19.13,0H527v-.21h9.57Zm-19.14,0h-9.57v-.21h9.57Zm-19.14,0h-9.56v-.21h9.56Zm-19.13,0h-9.58v-.21h9.58Zm-19.14,0h-9.57v-.21H460Zm-19.13,0h-9.58v-.21h9.58Zm-19.15,0h-9.56v-.21h9.56Zm-19.13,0H393v-.21h9.57Zm-19.14,0h-9.54v-.21h9.57Zm-19.13,0h-9.57v-.21h9.57Zm-19.15,0h-9.56v-.21h9.56Zm-19.13,0h-9.56v-.21h9.58Zm-19.14,0h-9.57v-.21h9.57Zm-19.13,0H278.2v-.21h9.57Zm-19.14,0h-9.57v-.21h9.57Z"/><rect class="cls-9" x="680.08" y="234.93" width="4.87" height="0.21"/></g><rect class="cls-7" x="685.24" y="307.65" width="17.16" height="5.36"/><g class="cls-8"><rect class="cls-9" x="244.62" y="310.07" width="4.87" height="0.21"/><path class="cls-9" d="M670.5,310.27h-9.56v-.21h9.56Zm-19.13,0h-9.56v-.21h9.56Zm-19.14,0h-9.57v-.21h9.57Zm-19.13,0h-9.57v-.21h9.57Zm-19.14,0h-9.57v-.21H594Zm-19.14,0h-9.56v-.21h9.56Zm-19.14,0h-9.57v-.21h9.57Zm-19.13,0H527v-.21h9.57Zm-19.14,0h-9.57v-.21h9.57Zm-19.14,0h-9.56v-.21h9.56Zm-19.13,0h-9.58v-.21h9.58Zm-19.14,0h-9.57v-.21H460Zm-19.13,0h-9.58v-.21h9.58Zm-19.15,0h-9.56v-.21h9.56Zm-19.13,0H393v-.21h9.57Zm-19.14,0h-9.54v-.21h9.57Zm-19.13,0h-9.57v-.21h9.57Zm-19.15,0h-9.56v-.21h9.56Zm-19.13,0h-9.56v-.21h9.58Zm-19.14,0h-9.57v-.21h9.57Zm-19.13,0H278.2v-.21h9.57Zm-19.14,0h-9.57v-.21h9.57Z"/><rect class="cls-9" x="680.08" y="310.07" width="4.87" height="0.21"/><rect class="cls-9" x="244.62" y="310.07" width="4.87" height="0.21"/><path class="cls-9" d="M670.5,310.27h-9.56v-.21h9.56Zm-19.13,0h-9.56v-.21h9.56Zm-19.14,0h-9.57v-.21h9.57Zm-19.13,0h-9.57v-.21h9.57Zm-19.14,0h-9.57v-.21H594Zm-19.14,0h-9.56v-.21h9.56Zm-19.14,0h-9.57v-.21h9.57Zm-19.13,0H527v-.21h9.57Zm-19.14,0h-9.57v-.21h9.57Zm-19.14,0h-9.56v-.21h9.56Zm-19.13,0h-9.58v-.21h9.58Zm-19.14,0h-9.57v-.21H460Zm-19.13,0h-9.58v-.21h9.58Zm-19.15,0h-9.56v-.21h9.56Zm-19.13,0H393v-.21h9.57Zm-19.14,0h-9.54v-.21h9.57Zm-19.13,0h-9.57v-.21h9.57Zm-19.15,0h-9.56v-.21h9.56Zm-19.13,0h-9.56v-.21h9.58Zm-19.14,0h-9.57v-.21h9.57Zm-19.13,0H278.2v-.21h9.57Zm-19.14,0h-9.57v-.21h9.57Z"/><rect class="cls-9" x="680.08" y="310.07" width="4.87" height="0.21"/></g><rect class="cls-7" x="685.24" y="345.19" width="17.16" height="5.36"/><g class="cls-8"><rect class="cls-9" x="244.62" y="347.6" width="4.87" height="0.21"/><path class="cls-9" d="M670.5,347.81h-9.56v-.21h9.56Zm-19.13,0h-9.56v-.21h9.56Zm-19.14,0h-9.57v-.21h9.57Zm-19.13,0h-9.57v-.21h9.57Zm-19.14,0h-9.57v-.21H594Zm-19.14,0h-9.56v-.21h9.56Zm-19.14,0h-9.57v-.21h9.57Zm-19.13,0H527v-.21h9.57Zm-19.14,0h-9.57v-.21h9.57Zm-19.14,0h-9.56v-.21h9.56Zm-19.13,0h-9.58v-.21h9.58Zm-19.14,0h-9.57v-.21H460Zm-19.13,0h-9.58v-.21h9.58Zm-19.15,0h-9.56v-.21h9.56Zm-19.13,0H393v-.21h9.57Zm-19.14,0h-9.54v-.21h9.57Zm-19.13,0h-9.57v-.21h9.57Zm-19.15,0h-9.56v-.21h9.56Zm-19.13,0h-9.56v-.21h9.58Zm-19.14,0h-9.57v-.21h9.57Zm-19.13,0H278.2v-.21h9.57Zm-19.14,0h-9.57v-.21h9.57Z"/><rect class="cls-9" x="680.08" y="347.6" width="4.87" height="0.21"/><rect class="cls-9" x="244.62" y="347.6" width="4.87" height="0.21"/><path class="cls-9" d="M670.5,347.81h-9.56v-.21h9.56Zm-19.13,0h-9.56v-.21h9.56Zm-19.14,0h-9.57v-.21h9.57Zm-19.13,0h-9.57v-.21h9.57Zm-19.14,0h-9.57v-.21H594Zm-19.14,0h-9.56v-.21h9.56Zm-19.14,0h-9.57v-.21h9.57Zm-19.13,0H527v-.21h9.57Zm-19.14,0h-9.57v-.21h9.57Zm-19.14,0h-9.56v-.21h9.56Zm-19.13,0h-9.58v-.21h9.58Zm-19.14,0h-9.57v-.21H460Zm-19.13,0h-9.58v-.21h9.58Zm-19.15,0h-9.56v-.21h9.56Zm-19.13,0H393v-.21h9.57Zm-19.14,0h-9.54v-.21h9.57Zm-19.13,0h-9.57v-.21h9.57Zm-19.15,0h-9.56v-.21h9.56Zm-19.13,0h-9.56v-.21h9.58Zm-19.14,0h-9.57v-.21h9.57Zm-19.13,0H278.2v-.21h9.57Zm-19.14,0h-9.57v-.21h9.57Z"/><rect class="cls-9" x="680.08" y="347.6" width="4.87" height="0.21"/></g><rect class="cls-7" x="685.24" y="382.72" width="17.16" height="5.36"/><g class="cls-8"><rect class="cls-9" x="244.62" y="385.15" width="4.87" height="0.21"/><path class="cls-9" d="M670.5,385.36h-9.56v-.21h9.56Zm-19.13,0h-9.56v-.21h9.56Zm-19.14,0h-9.57v-.21h9.57Zm-19.13,0h-9.57v-.21h9.57Zm-19.14,0h-9.57v-.21H594Zm-19.14,0h-9.56v-.21h9.56Zm-19.14,0h-9.57v-.21h9.57Zm-19.13,0H527v-.21h9.57Zm-19.14,0h-9.57v-.21h9.57Zm-19.14,0h-9.56v-.21h9.56Zm-19.13,0h-9.58v-.21h9.58Zm-19.14,0h-9.57v-.21H460Zm-19.13,0h-9.58v-.21h9.58Zm-19.15,0h-9.56v-.21h9.56Zm-19.13,0H393v-.21h9.57Zm-19.14,0h-9.54v-.21h9.57Zm-19.13,0h-9.57v-.21h9.57Zm-19.15,0h-9.56v-.21h9.56Zm-19.13,0h-9.56v-.21h9.58Zm-19.14,0h-9.57v-.21h9.57Zm-19.13,0H278.2v-.21h9.57Zm-19.14,0h-9.57v-.21h9.57Z"/><rect class="cls-9" x="680.08" y="385.15" width="4.87" height="0.21"/><rect class="cls-9" x="244.62" y="385.15" width="4.87" height="0.21"/><path class="cls-9" d="M670.5,385.36h-9.56v-.21h9.56Zm-19.13,0h-9.56v-.21h9.56Zm-19.14,0h-9.57v-.21h9.57Zm-19.13,0h-9.57v-.21h9.57Zm-19.14,0h-9.57v-.21H594Zm-19.14,0h-9.56v-.21h9.56Zm-19.14,0h-9.57v-.21h9.57Zm-19.13,0H527v-.21h9.57Zm-19.14,0h-9.57v-.21h9.57Zm-19.14,0h-9.56v-.21h9.56Zm-19.13,0h-9.58v-.21h9.58Zm-19.14,0h-9.57v-.21H460Zm-19.13,0h-9.58v-.21h9.58Zm-19.15,0h-9.56v-.21h9.56Zm-19.13,0H393v-.21h9.57Zm-19.14,0h-9.54v-.21h9.57Zm-19.13,0h-9.57v-.21h9.57Zm-19.15,0h-9.56v-.21h9.56Zm-19.13,0h-9.56v-.21h9.58Zm-19.14,0h-9.57v-.21h9.57Zm-19.13,0H278.2v-.21h9.57Zm-19.14,0h-9.57v-.21h9.57Z"/><rect class="cls-9" x="680.08" y="385.15" width="4.87" height="0.21"/></g><line class="cls-10" x1="300.55" y1="235.19" x2="300.55" y2="385.72"/><line class="cls-10" x1="359.77" y1="235.19" x2="359.77" y2="385.72"/><line class="cls-10" x1="418.98" y1="235.19" x2="418.98" y2="385.72"/><line class="cls-10" x1="478.2" y1="235.19" x2="478.2" y2="385.72"/><line class="cls-10" x1="537.41" y1="235.19" x2="537.41" y2="385.72"/><line class="cls-10" x1="596.62" y1="235.19" x2="596.62" y2="385.72"/><line class="cls-10" x1="655.84" y1="235.19" x2="655.84" y2="385.72"/><path class="cls-7" d="M668.65,225l-6.78,7.27a2.52,2.52,0,0,0-.34.51l-4.2,8.92a1.91,1.91,0,0,1-1.87,1.11l-1.35-.11a1.93,1.93,0,0,1-1.7-1.42l-1.3-4.63a1.91,1.91,0,0,0-2.38-1.35,2,2,0,0,0-1.29,1.26l-2.18,6.58a1.92,1.92,0,0,1-1.82,1.35h-8.33a2,2,0,0,1-1.9-1.68l-2.36-15.16a1.92,1.92,0,0,0-2.19-1.65,1.94,1.94,0,0,0-1.42,1.07l-12.06,24.52a1.91,1.91,0,0,1-2.59.87,1.58,1.58,0,0,1-.24-.15l-7.17-5.21a1.89,1.89,0,0,0-2.57.32l-2.72,3.23a2.11,2.11,0,0,0-.21.31l-7.25,12.92a1.89,1.89,0,0,1-1.86,1l-4.42-.45a1.89,1.89,0,0,0-.91.13l-4,1.63a1.91,1.91,0,0,1-2.44-1l-.87-2.05a1.91,1.91,0,0,0-1.85-1.18l-4.52.21a1.89,1.89,0,0,0-1.44.78l-1.28,1.72a1.88,1.88,0,0,1-2.69.37,2,2,0,0,1-.65-.92l-1.62-4.72a1.91,1.91,0,0,0-2.45-1.21,1.75,1.75,0,0,0-.52.28l-7.71,5.95-8.52,7.08a1.88,1.88,0,0,1-2.09.21L536,268.15a1.84,1.84,0,0,0-1.15-.2l-13.39,1.93a2,2,0,0,0-1.63,1.52L517.49,282a1.9,1.9,0,0,1-3.13,1.06h0a1.89,1.89,0,0,0-2.72.23,2,2,0,0,0-.25.39l-1.83,3.77a2,2,0,0,1-1.4,1.07l-4.15.71a1.86,1.86,0,0,0-.74.31l-6.53,4.48a2,2,0,0,1-1.06.33h-3.06a1.92,1.92,0,0,1-1.77-1.19l-.81-2a1.91,1.91,0,0,0-2.54-1l0,0-7.09,3.41a1.88,1.88,0,0,1-1.81-.09l-3.24-2a1.87,1.87,0,0,0-1-.29h-7.17a1.88,1.88,0,0,0-1.06.34L459,296.44a1.87,1.87,0,0,1-1.88.15L453.83,295a1.86,1.86,0,0,0-2.26.49L450,297.31a1.87,1.87,0,0,1-2.7.21,2.18,2.18,0,0,1-.42-.54l-.46-.84a1.9,1.9,0,0,0-2.62-.76l0,0-5.62,3.43a1.89,1.89,0,0,1-1.92,0l-2.32-1.33a1.89,1.89,0,0,0-1.73-.07l-2.2,1a1.9,1.9,0,0,1-2.56-1,1.67,1.67,0,0,1-.08-.2l-1.43-4.38a1.9,1.9,0,0,0-1.83-1.37H422a1.84,1.84,0,0,1-.93-.26l-8-4.5a1.88,1.88,0,0,0-2.08.16l-5.85,4.51a1.78,1.78,0,0,1-1.15.39h-7.36a1.88,1.88,0,0,0-1.06.34l-1.38.94a1.88,1.88,0,0,1-2.66-.54,1.59,1.59,0,0,1-.13-.22l-.33-.67a1.91,1.91,0,0,0-1.72-1.11H385.7a1.93,1.93,0,0,0-1.52.77l-2.29,3a1.88,1.88,0,0,1-2.69.34,1.74,1.74,0,0,1-.44-.5l-.65-1.05a1.89,1.89,0,0,0-2.62-.63l-1.89,1.17a1.89,1.89,0,0,1-2.12-.09l-7.65-5.71a2.38,2.38,0,0,0-.44-.25l-6-2.36a1.89,1.89,0,0,0-2.43,1.1l-4.16,10.44a1.83,1.83,0,0,0-.12.46l-1.35,9.41a2,2,0,0,1-.5,1.06L346,310.89a1.89,1.89,0,0,1-2.34.37l-4.94-2.82a1.9,1.9,0,0,0-2.62.76,1.64,1.64,0,0,0-.14.33L332.83,319a2,2,0,0,0-.11.64v5.95a2,2,0,0,1-1.16,1.81l-5,2.29a1.86,1.86,0,0,1-1.74-.12L321,327.25a1.9,1.9,0,0,0-1.25-.26l-6.63,1a1.89,1.89,0,0,1-1.93-1l-1.12-2a1.9,1.9,0,0,0-1.09-.88l-3-1a1.87,1.87,0,0,0-2,.56l-4.18,4.78a2,2,0,0,1-1.27.65l-6.16.53a1.83,1.83,0,0,0-.82.25l-10.74,6.37a1.89,1.89,0,0,1-2.16-.18l-3.05-2.5a1.91,1.91,0,0,0-1.2-.44H262.86a1.88,1.88,0,0,1-1.5-.74l-2.91-3.74a1.89,1.89,0,0,0-2.71-.31l-.22.22-3.51,4a2,2,0,0,0-.49,1.32v49.83a2,2,0,0,0,1.92,2H670.16a2,2,0,0,0,1.92-2h0L672,226.45a2,2,0,0,0-1.9-2A1.9,1.9,0,0,0,668.65,225Z"/><path class="cls-7" d="M668.27,289.55,662,293.86a2.38,2.38,0,0,0-.58.56l-3.9,5.31a2.4,2.4,0,0,1-2,1l-1.28-.07a2.39,2.39,0,0,1-2.05-1.44l-.81-1.78a2.34,2.34,0,0,0-3.13-1.23,2.43,2.43,0,0,0-1.13,1.09l-1.62,3.2a2.37,2.37,0,0,1-2.1,1.3h-8a2.39,2.39,0,0,1-2.3-1.86l-1.93-8a2.36,2.36,0,0,0-4.17-.93l-11.6,15.11a2.34,2.34,0,0,1-2.84.71L605,303.37a2.33,2.33,0,0,0-2.43.26l-2.67,2a2.73,2.73,0,0,0-.35.33l-7,8a2.33,2.33,0,0,1-1.91.84l-4.6-.3a2.38,2.38,0,0,0-.75.06l-4.14,1.1a2.35,2.35,0,0,1-2.56-1l-.47-.72a2.38,2.38,0,0,0-2-1.06l-4.62.14a2.24,2.24,0,0,0-1.45.57l-1.14,1a2.34,2.34,0,0,1-3.35-.3,2.65,2.65,0,0,1-.26-.39l-1.2-2.24a2.33,2.33,0,0,0-3.1-1l-7.78,3.85-8.61,4.58a2.29,2.29,0,0,1-1.83.14l-6.86-2.34a2.56,2.56,0,0,0-.95-.12L521.67,318a2.43,2.43,0,0,0-2,1.61l-1.93,5.53a2.35,2.35,0,0,1-3,1.47l-.33-.15-.08,0a2.31,2.31,0,0,0-3,.63l-1.51,2a2.42,2.42,0,0,1-1.62.93l-4.15.46a2.33,2.33,0,0,0-.69.17l-6.57,2.9a2.36,2.36,0,0,1-.94.19h-3.16a2.34,2.34,0,0,1-2-1.07l-.46-.68a2.33,2.33,0,0,0-2.64-1l-7.38,2.3a2.39,2.39,0,0,1-1.54-.06l-3.42-1.36a2.25,2.25,0,0,0-.81-.16h-7.35a2.09,2.09,0,0,0-.92.2l-7.31,3.19a2.26,2.26,0,0,1-1.62.09L453.59,334a2.32,2.32,0,0,0-2.08.37l-1.58,1.19a2.33,2.33,0,0,1-3.19-.36l-.24-.27a2.32,2.32,0,0,0-2.62-.68L438,336.59a2.26,2.26,0,0,1-1.62,0l-2.58-.95a2.35,2.35,0,0,0-1.46,0l-2.43.73a2.35,2.35,0,0,1-2.78-1.26l-.91-1.88a2.4,2.4,0,0,0-2.13-1.35H422a2.5,2.5,0,0,1-.81-.13l-8.18-3a2.3,2.3,0,0,0-1.82.1l-6,3a2.43,2.43,0,0,1-1,.24H396.6a2.45,2.45,0,0,0-.93.19l-1.54.69a2.36,2.36,0,0,1-2.81-.75h0a2.36,2.36,0,0,0-1.87-.94h-3.82a2.29,2.29,0,0,0-1.5.55l-2.22,1.87a2.31,2.31,0,0,1-3.19-.17l-.5-.51a2.32,2.32,0,0,0-2.54-.56l-2.2.87a2.36,2.36,0,0,1-1.86-.06l-7.77-3.71a1.57,1.57,0,0,0-.43-.15l-6.09-1.55a2.34,2.34,0,0,0-2.56,1.05L350.94,335a2.73,2.73,0,0,0-.32.77L349.46,341a2.44,2.44,0,0,1-1,1.47L346,344.27a2.28,2.28,0,0,1-2.13.28l-5.21-1.9a2.35,2.35,0,0,0-2.91,1.2L333,349.13a2.58,2.58,0,0,0-.28,1.16v2.38A2.43,2.43,0,0,1,331,355l-4.56,1.31a2.31,2.31,0,0,1-1.47-.07l-4-1.55a2.34,2.34,0,0,0-1.05-.15l-6.85.65a2.34,2.34,0,0,1-2-.79l-.81-.93a2.27,2.27,0,0,0-1.29-.75l-3.12-.65a2.36,2.36,0,0,0-1.85.41l-4.11,3a2.46,2.46,0,0,1-1.25.45l-6.3.34a2.09,2.09,0,0,0-.7.15l-10.94,4.18a2.26,2.26,0,0,1-1.9-.12l-3.16-1.67a2.3,2.3,0,0,0-1.08-.27H262.78a2.35,2.35,0,0,1-1.49-.54l-2.84-2.35a2.33,2.33,0,0,0-2.87-.08l-3.05,2.24a2.49,2.49,0,0,0-1,2v23.49a2.41,2.41,0,0,0,2.38,2.44H669.7a2.41,2.41,0,0,0,2.38-2.44L672,291.62a2.36,2.36,0,0,0-3.69-2.07Z"/><ellipse class="cls-5" cx="669.95" cy="288.93" rx="5.68" ry="5.85"/><path class="cls-7" d="M669.59,346.79l-7.72,2.64a3.29,3.29,0,0,0-.42.21l-4.23,2.88a1.76,1.76,0,0,1-1,.31l-2.64-.07a1.8,1.8,0,0,1-1.3-.61l-1.62-1.84a1.77,1.77,0,0,0-2.55-.13l0,0-2.73,2.64a1.73,1.73,0,0,1-1.23.51H634.6a1.78,1.78,0,0,1-1.62-1l-2.17-4.46a1.78,1.78,0,0,0-2.42-.83l-.16.09-13.4,8.75a1.84,1.84,0,0,1-1.37.24L604.28,354a1.7,1.7,0,0,0-1,.07l-3.35,1.27a1.15,1.15,0,0,0-.25.12l-7.41,4.23a1.78,1.78,0,0,1-.93.23l-5.48-.18a1.41,1.41,0,0,0-.29,0l-5.27.69a1.79,1.79,0,0,1-1.3-.34l-1.07-.84a1.8,1.8,0,0,0-1.09-.36L571,359a1.71,1.71,0,0,0-.67.14l-2.6,1.13a1.77,1.77,0,0,1-1.91-.35L563.72,358a1.76,1.76,0,0,0-1.62-.43l-8.87,2.21-9.13,2.43a1.84,1.84,0,0,1-.74,0l-7.71-1.32h-.37L521,361.5a1.77,1.77,0,0,0-1.38.77l-2.15,3.05a1.77,1.77,0,0,1-2,.71l-2.29-.65a1.79,1.79,0,0,0-1.46.24l-2.29,1.51a1.86,1.86,0,0,1-.88.28l-4.87.28h-.27l-7,1.54a1.58,1.58,0,0,1-.38,0H492a1.77,1.77,0,0,1-1.06-.35l-1.07-.84a1.72,1.72,0,0,0-1.33-.34l-8.77,1.35a2.08,2.08,0,0,1-.61,0l-4.12-.83a1,1,0,0,0-.34,0h-7.91a1.15,1.15,0,0,0-.37,0l-8,1.75a1.78,1.78,0,0,1-.65,0l-4.78-.74a1.69,1.69,0,0,0-.89.1L449,370.52a1.77,1.77,0,0,1-1.52-.13l-1.45-.84a1.74,1.74,0,0,0-1.22-.22l-7.3,1.43a1.83,1.83,0,0,1-.66,0l-3.51-.64a1.88,1.88,0,0,0-.58,0l-3.88.57a1.75,1.75,0,0,1-1.53-.51L426,368.92a1.83,1.83,0,0,0-1.28-.55h-3.38l-9-1.62a1.8,1.8,0,0,0-.73,0l-6.78,1.67a1.54,1.54,0,0,1-.43.05h-8.17a2.28,2.28,0,0,0-.37,0l-2.76.61a1.77,1.77,0,0,1-1.39-.16l-.76-.51a1.72,1.72,0,0,0-1-.3h-4.94a1.64,1.64,0,0,0-.68.15L381,369.71a1.75,1.75,0,0,1-1.5-.06l-1.83-.95a1.77,1.77,0,0,0-1.15-.17l-3.62.72a1.89,1.89,0,0,1-.75,0l-8.38-2h-.19l-7.13-.91a1.84,1.84,0,0,0-1.33.39L351,370a1.93,1.93,0,0,0-.52.68l-.91,2.08a1.84,1.84,0,0,1-1.06,1l-3.11,1.09a1.63,1.63,0,0,1-.9.08l-6.93-1.27a1.79,1.79,0,0,0-1.55.48l-2.75,2.64a1.94,1.94,0,0,0-.57,1.37h0a1.83,1.83,0,0,1-1.55,1.83l-5.2.75a2,2,0,0,1-.59,0l-4.7-.92a1.48,1.48,0,0,0-.42,0l-7.86.37a1.86,1.86,0,0,1-.95-.23l-1.38-.78a1.69,1.69,0,0,0-.69-.22l-4.13-.43a1.87,1.87,0,0,0-.81.1l-4.87,1.78a1.8,1.8,0,0,1-.56.11l-6.92.19h-.28l-11.72,2.23a1.67,1.67,0,0,1-.77,0l-4-1.05a1.76,1.76,0,0,0-.46-.06H262.28a1.7,1.7,0,0,1-.67-.13L257.67,380a1.7,1.7,0,0,0-1.29,0l-3.66,1.34a1.85,1.85,0,0,0-1.2,1.75v.83a1.83,1.83,0,0,0,1.79,1.87H670.25a1.83,1.83,0,0,0,1.8-1.86h0l-.1-35.31a1.84,1.84,0,0,0-1.74-1.93A1.64,1.64,0,0,0,669.59,346.79Z"/><ellipse class="cls-5" cx="357.66" cy="328.2" rx="5.68" ry="5.85"/><ellipse class="cls-5" cx="630.21" cy="291.44" rx="5.68" ry="5.85"/><ellipse class="cls-5" cx="489.06" cy="330.7" rx="5.68" ry="5.85"/><ellipse class="cls-5" cx="562.88" cy="309.82" rx="5.68" ry="5.85"/><path class="cls-11" d="M672.78,291.57a2.41,2.41,0,0,0-2.39-2.43,2.37,2.37,0,0,0-1.31.4l-6.27,4.31a2.8,2.8,0,0,0-.58.56l-3.9,5.31a2.4,2.4,0,0,1-2,1l-1.28-.07a2.37,2.37,0,0,1-2-1.44l-.81-1.78a2.34,2.34,0,0,0-3.13-1.23,2.43,2.43,0,0,0-1.13,1.09l-1.62,3.2a2.37,2.37,0,0,1-2.1,1.3h-8.05a2.38,2.38,0,0,1-2.3-1.86l-1.93-8a2.36,2.36,0,0,0-4.17-.93l-11.6,15.11a2.32,2.32,0,0,1-2.84.71l-7.46-3.47a2.33,2.33,0,0,0-2.43.26l-2.67,2a3.61,3.61,0,0,0-.35.33l-7,8a2.33,2.33,0,0,1-1.91.84l-4.6-.3a2.38,2.38,0,0,0-.75.06l-4.14,1.1a2.35,2.35,0,0,1-2.56-1l-.47-.72a2.37,2.37,0,0,0-2-1.06l-4.62.15a2.23,2.23,0,0,0-1.45.56l-1.14,1a2.32,2.32,0,0,1-3.34-.3,2.7,2.7,0,0,1-.27-.39l-1.2-2.24a2.33,2.33,0,0,0-3.1-1L554,314.52l-8.61,4.58a2.29,2.29,0,0,1-1.83.14l-6.86-2.34a2.34,2.34,0,0,0-1-.11L522.48,318a2.43,2.43,0,0,0-2,1.61l-1.92,5.53a2.37,2.37,0,0,1-3,1.47l-.33-.15-.08,0a2.31,2.31,0,0,0-3,.63l-1.51,2a2.42,2.42,0,0,1-1.62.93l-4.15.46a2.19,2.19,0,0,0-.68.17l-6.58,2.9a2.36,2.36,0,0,1-.94.19h-3.16a2.35,2.35,0,0,1-2-1.07l-.46-.68a2.33,2.33,0,0,0-2.64-1l-7.37,2.3a2.42,2.42,0,0,1-1.55-.06L476,331.82a2.25,2.25,0,0,0-.81-.16h-7.35a2.09,2.09,0,0,0-.92.2l-7.3,3.19a2.29,2.29,0,0,1-1.63.09L454.4,334a2.32,2.32,0,0,0-2.08.37l-1.58,1.19a2.33,2.33,0,0,1-3.19-.36l-.24-.27a2.32,2.32,0,0,0-2.62-.68l-5.88,2.31a2.29,2.29,0,0,1-1.63,0l-2.58-.95a2.35,2.35,0,0,0-1.46,0l-2.43.73a2.35,2.35,0,0,1-2.78-1.26l-.91-1.88a2.39,2.39,0,0,0-2.13-1.35h-2.1a2.51,2.51,0,0,1-.82-.13l-8.18-3a2.31,2.31,0,0,0-1.82.1l-6,3a2.43,2.43,0,0,1-1,.24h-7.55a2.49,2.49,0,0,0-.93.19l-1.54.69a2.36,2.36,0,0,1-2.81-.75h0a2.36,2.36,0,0,0-1.87-.94h-3.81a2.32,2.32,0,0,0-1.51.55l-2.22,1.87a2.31,2.31,0,0,1-3.19-.17L379,333a2.32,2.32,0,0,0-2.54-.56l-2.2.87a2.36,2.36,0,0,1-1.86-.06l-7.76-3.71a1.84,1.84,0,0,0-.43-.15l-6.1-1.55a2.34,2.34,0,0,0-2.56,1.05L351.75,335a2.7,2.7,0,0,0-.31.77L350.28,341a2.5,2.5,0,0,1-1,1.47l-2.53,1.79a2.28,2.28,0,0,1-2.13.28l-5.21-1.9a2.35,2.35,0,0,0-2.91,1.2l-2.74,5.28a2.58,2.58,0,0,0-.28,1.16v2.38a2.43,2.43,0,0,1-1.74,2.35l-4.56,1.31a2.32,2.32,0,0,1-1.47-.07l-4-1.55a2.4,2.4,0,0,0-1.06-.15l-6.85.65a2.33,2.33,0,0,1-2-.79l-.82-.93a2.28,2.28,0,0,0-1.28-.75l-3.13-.65a2.36,2.36,0,0,0-1.85.41l-4.11,3a2.46,2.46,0,0,1-1.25.45l-6.3.34a2.14,2.14,0,0,0-.7.15l-10.94,4.18a2.26,2.26,0,0,1-1.9-.12l-3.16-1.67a2.3,2.3,0,0,0-1.08-.27H263.6a2.36,2.36,0,0,1-1.5-.54l-2.84-2.35a2.33,2.33,0,0,0-2.87-.08l-3,2.24a2.48,2.48,0,0,0-1,2"/><rect class="cls-12" x="227.87" y="420.05" width="474.53" height="0.08"/><ellipse class="cls-7" cx="300.88" cy="420.09" rx="4.06" ry="4.18"/><ellipse class="cls-7" cx="360.09" cy="420.09" rx="4.06" ry="4.18"/><ellipse class="cls-7" cx="419.31" cy="420.09" rx="4.06" ry="4.18"/><ellipse class="cls-7" cx="478.52" cy="420.09" rx="4.06" ry="4.18"/><ellipse class="cls-7" cx="537.73" cy="420.09" rx="4.06" ry="4.18"/><ellipse class="cls-7" cx="596.95" cy="420.09" rx="4.06" ry="4.18"/><ellipse class="cls-7" cx="656.16" cy="420.09" rx="4.06" ry="4.18"/><path class="cls-13" d="M194.43,581.17c-2.43-4.6.32-10.24,3.48-14.34s7-8.35,6.9-13.61c-.12-7.52-7.87-12-14.06-16a69,69,0,0,1-12.62-10.46,19.37,19.37,0,0,1-3.87-5.35c-1.29-2.94-1.25-6.28-1.17-9.5q.41-16.11,1.55-32.15"/><path class="cls-6" d="M162.87,479.24a11.73,11.73,0,0,1,5.67-9.61l2.55,5.19-.08-6.28a11.14,11.14,0,0,1,3.76-.47,11.7,11.7,0,1,1-11.91,11.17Z"/><path class="cls-6" d="M183.17,558.59a11.2,11.2,0,0,0,15.3,5,11.86,11.86,0,0,0,4.88-15.75,11.18,11.18,0,0,0-15.29-5,11.51,11.51,0,0,0-5.44,6.31l7.11,6-7.83-1.86A12,12,0,0,0,183.17,558.59Z"/><path class="cls-6" d="M188.79,535.83A11.47,11.47,0,0,0,200.92,525a11.67,11.67,0,0,0-8.52-12.16l.07,4.83-2.58-5.26h0A11.5,11.5,0,0,0,178,523.51v0a11.81,11.81,0,0,0,.48,4A11.43,11.43,0,0,0,188.79,535.83Z"/><path class="cls-6" d="M161.16,516.89a11.7,11.7,0,0,0,.83-23.38,11.16,11.16,0,0,0-5.87,1.43l2,5.68L154,496.53a11.84,11.84,0,0,0-3.67,8.1,11.71,11.71,0,0,0,.28,3.23A11.5,11.5,0,0,0,161.16,516.89Z"/><path class="cls-3" d="M164.4,482.36c2.63.29,5.18,1.14,7.82,1.31s5.53-.49,7.2-2.59a38.18,38.18,0,0,0,2.1-3.82,8.21,8.21,0,0,1,2.87-2.78,11.84,11.84,0,0,1-5.34,15.59,11.2,11.2,0,0,1-15.14-5.5,11.69,11.69,0,0,1-.8-2.31C163.54,482.28,164,482.31,164.4,482.36Z"/><path class="cls-3" d="M161.16,516.89a11.49,11.49,0,0,0,11.91-11.09,11.93,11.93,0,0,0-1.09-5.62,8.54,8.54,0,0,0-2.28,2.36,39.11,39.11,0,0,1-2.26,3.87c-1.77,2.15-4.8,2.85-7.55,2.73s-5.4-.94-8.11-1.2c-.38,0-.76-.06-1.15-.06A11.49,11.49,0,0,0,161.16,516.89Z"/><path class="cls-3" d="M188.79,535.83a11.49,11.49,0,0,0,11.93-11.07,11.93,11.93,0,0,0-1-5.47,9.32,9.32,0,0,0-2.43,2.38c-.89,1.28-1.44,2.76-2.44,4-1.92,2.21-5.15,3-8.05,2.91s-5.54-.77-8.34-1A11.43,11.43,0,0,0,188.79,535.83Z"/><path class="cls-3" d="M183.17,558.59a11.23,11.23,0,0,0,15,5.91A11.86,11.86,0,0,0,203.93,549a11.32,11.32,0,0,0-2.5,2.29,48.85,48.85,0,0,1-3.05,4.17c-2.33,2.36-6.08,3.35-9.43,3.42A48.57,48.57,0,0,1,183.17,558.59Z"/><path class="cls-14" d="M211.6,575.88s-9-.29-11.7-2.28-13.79-4.35-14.48-1.16-13.51,15.87-3.37,15.92,23.57-1.63,26.28-3.34S211.6,575.88,211.6,575.88Z"/><path class="cls-15" d="M181.87,587.25c10.15.08,23.57-1.62,26.28-3.34,2.06-1.3,2.88-5.94,3.15-8.07h.3s-.57,7.46-3.24,9.19-16.14,3.41-26.28,3.34c-2.93,0-3.94-1.09-3.88-2.68C178.58,586.63,179.69,587.23,181.87,587.25Z"/><path class="cls-16" d="M777.87,473.05a13.37,13.37,0,0,0-.66,5.44,11.39,11.39,0,0,0,2.44,5,4.57,4.57,0,0,0,2.62,2,3.09,3.09,0,0,0,2.9-1.45,7.13,7.13,0,0,0,1.05-3.28,38.7,38.7,0,0,0-.44-9.31,63.14,63.14,0,0,0-1.1-7.92c-1.72,0-3.7-.32-4.66,1.37C778.79,467.08,778.5,470.59,777.87,473.05Z"/><path class="cls-4" d="M787.28,427.06c-.42,1.23-1,2.4-1.41,3.64a26.74,26.74,0,0,0-.81,4A222.71,222.71,0,0,1,780.2,458a25.52,25.52,0,0,0-1.22,7l4.64-.17a1.73,1.73,0,0,1,1.25.28c.4.37.66,1.18,1.17,1a122.46,122.46,0,0,0,1.82-13.89c.19-3.34.1-6.62.31-9.92.41-6.57,2.3-14.06-.18-20.42A14.22,14.22,0,0,1,787.28,427.06Z"/><path class="cls-3" d="M787.28,427.06c-.42,1.23-1,2.4-1.41,3.64a26.74,26.74,0,0,0-.81,4A222.71,222.71,0,0,1,780.2,458a25.52,25.52,0,0,0-1.22,7l4.64-.17a1.73,1.73,0,0,1,1.25.28c.4.37.66,1.18,1.17,1a122.46,122.46,0,0,0,1.82-13.89c.19-3.34.1-6.62.31-9.92.41-6.57,2.3-14.06-.18-20.42A14.22,14.22,0,0,1,787.28,427.06Z"/><path class="cls-4" d="M793.05,387.68a7.33,7.33,0,0,0-1.86,4.11L788.49,404c-.61,2.79-1.23,5.58-1.62,8.41-1.7,11.83.27,24-1.62,35.79a58,58,0,0,0-1.09,8c-.08,4.91,1.76,9.8,1,14.65a4.57,4.57,0,0,0,0,2.64c.39.83,1.7,1.1,2.07.29a1.55,1.55,0,0,0,.12-.47l2.81-18.24c.67-4.33,1.34-8.74.87-13.1-.31-3-1.16-5.95-.69-8.91a29.32,29.32,0,0,1,1.24-4.3c2.71-8.36,2.33-17.44.81-26.07a11.09,11.09,0,0,1-.26-3.85c.37-2.11,2-3.73,3-5.57.81-1.39,2.21-4.44,1.62-6.11C796.18,385.19,794.19,386.67,793.05,387.68Z"/><path class="cls-17" d="M797.54,564.27a1.81,1.81,0,0,0-1.09.2,2,2,0,0,0-.64.83c-.9,1.91-1.53,4.13-3.24,5.36a8.77,8.77,0,0,1-2.8,1.19l-7.63,2.24c-1,.28-2.1.7-2.43,1.67a2.56,2.56,0,0,0,1.3,2.72,8.4,8.4,0,0,0,4.38.84l11,.17a9.07,9.07,0,0,0,3.11-.33c1.29-.47,2.38-1.53,3.73-1.67a9.7,9.7,0,0,1,3.25.62,14.35,14.35,0,0,0,6.8-.59,1.85,1.85,0,0,0,1.08-.53,2,2,0,0,0,.34-1.24c.08-1.94.12-3.88.11-5.85,0-1.76-.2-3.81-1.62-4.77a5,5,0,0,0-2.14-.68C806.57,563.86,802.1,564.3,797.54,564.27Z"/><path class="cls-17" d="M826.75,589a11,11,0,0,1-1.18,2.15l-4.65,7.25c-1.89,3-3.86,6.11-4,9.64a21.63,21.63,0,0,0,9.74,1.45,8.82,8.82,0,0,0,4.65-1.5c2-1.51,2.79-4.18,3.43-6.62a1.4,1.4,0,0,1,.45-.83c.41-.29,1,0,1.48-.11,1-.13,1.38-1.47,1.46-2.51a34.62,34.62,0,0,0-.81-9.84,2.07,2.07,0,0,0-.5-1.08,2,2,0,0,0-1.06-.4c-2.32-.41-4.64-.89-7-1.24C825.73,584.85,827.62,586.72,826.75,589Z"/><path class="cls-4" d="M788.36,459.79c-2.24,2.94-3,6.87-2.79,10.6a61.88,61.88,0,0,0,2,11,144,144,0,0,1,3,18,24.34,24.34,0,0,0,.81,5c.4,1.27,1,2.45,1.37,3.73.44,1.55.48,3.21.88,4.77a28.39,28.39,0,0,0,2.1,4.87c3.7,7.8,4.5,16.71,4.56,25.4,0,2.34,0,4.68.22,7,.47,4.73,1.89,10-.86,13.84.69,2.59,4,3.08,6.61,2.74a32.23,32.23,0,0,0,8.76-2.42c-.81-1.78-2-3.84-1.94-5.85a17.11,17.11,0,0,1,1.15-4.58c1.47-4.59,1.62-9.51,1.7-14.34a41.82,41.82,0,0,0-.06-4.48,38,38,0,0,0-.65-4.1l-3.14-16.19a26.38,26.38,0,0,1-.22-8.64,32.68,32.68,0,0,1,3.32-9.73c3.75-7.81,5.05-16.61,5.79-25.3.4-4.75.5-10-2.43-13.71a12.16,12.16,0,0,0-7-4.09,27.94,27.94,0,0,0-8.11-.33C798,453.5,791.73,455.4,788.36,459.79Z"/><path class="cls-4" d="M789,461.87c-1,3.59,1.54,7.09,2.87,10.58.77,2,1.15,4.18,2.32,6,1.44,2.23,3.92,3.55,5.49,5.7s2,4.66,3.24,6.89,3.25,4.09,4.38,6.41c1.72,3.47,1.47,7.63,2.68,11.32.86,2.65,2.47,5,3.1,7.74.27,1.23.35,2.51.65,3.71.73,2.88,2.71,5.38,2.91,8.36.13,1.94-.5,4.08.49,5.73.6,1,1.69,1.61,2.44,2.51a8.27,8.27,0,0,1,1.16,2.71l1.62,5.47c1.56,5.31,1.74,10.8,3.24,16.14s2.57,11.11.81,16.37c-.7,2.18-1.88,4.42-1.29,6.64a5.64,5.64,0,0,0,3.18,3.47,13,13,0,0,0,4.69.91c2.15.12,4.46,0,6.24-1.23a130.51,130.51,0,0,1-1-20.25c.21-4.41.81-8.8.81-13.22a90.81,90.81,0,0,0-3.33-20.55,45.24,45.24,0,0,1-1.7-5.45c-.26-1.26-.34-2.55-.52-3.83s-.45-2.51-.72-3.82L831.66,515c-.25-1.14-.91-2.13-1-3.29l-.33-7.52c-.54-12.32-1.06-24.83,1.82-36.76-1.68-5.13-4.51-10.54-9.33-12.68a16.2,16.2,0,0,0-6.25-1.23C806.75,453.23,797.93,457.58,789,461.87Z"/><path class="cls-16" d="M796.39,377.66a6.91,6.91,0,0,1,1.26,1.1,6.76,6.76,0,0,1,1.06,1.89,23.33,23.33,0,0,1,1.62,7.19,89.14,89.14,0,0,0,14.44-13.09c-1.94.15-3.73-1.28-4.65-3a16.16,16.16,0,0,1-1.38-5.78c0-.37-5,1.82-5.46,2-1.78,1-3.45,2.2-5.2,3.27-.84.52-1.7,1-2.58,1.44a14.56,14.56,0,0,0-2.77,1.11C790.94,375.28,795.28,376.87,796.39,377.66Z"/><path class="cls-9" d="M795.58,383.32c-.21,1.61.06,3.26-.17,4.86-.34,2.31-1.63,4.33-2.6,6.45-2.66,6-2.43,12.78-2.56,19.33-.12,7.17-.69,14.31-1.28,21.45l-1.06,13.08a62,62,0,0,1-.81,6.76,11.49,11.49,0,0,0-.33,2.87,10,10,0,0,0,1,3.34,10.11,10.11,0,0,0,2.26,3.71,3.31,3.31,0,0,0,4,.59l1-3a4.66,4.66,0,0,0,4.34,4.58,8.81,8.81,0,0,0,2.44-.43l7.5-2.1a22.77,22.77,0,0,0,4.71-1.67c3.24-1.78,5.41-5.12,6.58-8.69A40.16,40.16,0,0,0,822,443.35c.3-8.68.08-17.44-1.71-25.9-.74-3.55-1.77-7-2.38-10.62a97.26,97.26,0,0,1-1.06-14.57l-.26-12.08a10.6,10.6,0,0,0-.72-4.39,3.43,3.43,0,0,0-3.47-2.13c-2.25.43-2.77,3.42-4,5.41a12.6,12.6,0,0,1-4.46,3.86c-1.11.69-2.48,1.39-3.62.76s-1.13-2.69-2.3-3.21C796.53,379.62,795.71,382.08,795.58,383.32Z"/><path class="cls-4" d="M806.32,386.71A98.67,98.67,0,0,0,802,404.16c-1.13,6.37-2.14,12.92-1.11,19.31,1.94,12.09,10.85,21.85,13.88,33.7a59.4,59.4,0,0,0,1.63,6.16c1.16,3.34,3.24,6.18,5.29,9,1.11,1.51,2.74,3.21,4.47,2.6,1.29-.46,1.86-2,2.84-3,1.37-1.38,3.47-1.62,5.39-1.53s3.88.45,5.73,0,3.63-2.16,3.44-4.18a8.38,8.38,0,0,0-1.62-3.34c-1.87-2.87-2.58-6.36-3.12-9.78-3.13-19.71-1.73-40-5.05-59.64a17.71,17.71,0,0,0-2.3-7.07,28.7,28.7,0,0,1-1.88-2.73,21.32,21.32,0,0,0-1.42-3.15c-1-1.32-2.65-1.81-4.18-2.32a38.53,38.53,0,0,1-6.06-2.6c-1.48-.78-3.57-3-5.06-1.92s-2.62,4.65-3.42,6.22A67.17,67.17,0,0,0,806.32,386.71Z"/><path class="cls-16" d="M812.75,468.15c-1.15.28-2.38-.1-3.54.17-1.9.45-3,2.45-3.86,4.25a4.68,4.68,0,0,0-.58,1.82,1.51,1.51,0,0,0,.93,1.51,1.72,1.72,0,0,0,1.69-.74,8.73,8.73,0,0,1,1.3-1.48c1.35-.92,3.18.06,4.23,1.33s1.83,2.87,3.24,3.63a7.54,7.54,0,0,0,2.59.65,8.4,8.4,0,0,0,2.83,0,3,3,0,0,0,2.22-1.67,4.82,4.82,0,0,0,.26-1.81l.14-8.35a2.38,2.38,0,0,0-.27-1.41,2.14,2.14,0,0,0-1.08-.7c-1.51-.6-4.78-2.61-6.3-1.6C814.86,465,815.18,467.58,812.75,468.15Z"/><ellipse class="cls-16" cx="797.17" cy="362.72" rx="14.37" ry="14.8"/><path class="cls-4" d="M795.75,361.11a2.89,2.89,0,0,0-2.06-2.24c-.39,0-.79-.1-1.18-.18-1.35-.48-1.32-2.61-2.48-3.46a3,3,0,0,0-3.07.18,6.33,6.33,0,0,1-3,1.07,3.2,3.2,0,0,1-2.71-2.67,6.38,6.38,0,0,1,.73-4c2.16-4.36,6.68-6.86,11-8.76a21.81,21.81,0,0,1,6-1.87,8.55,8.55,0,0,1,6,1.31c.56.41,1,.89,1.62,1.27a17.18,17.18,0,0,0,1.75.92c5.78,3,8.79,10.47,7.21,16.93-.55,2.25-1.63,4.36-2,6.64a5.3,5.3,0,0,1-.45,1.79c-.74,1.33-2.53,1.46-4.06,1.42a1.92,1.92,0,0,1-1.16-.29,2.08,2.08,0,0,1-.57-1.21c-.6-2.5-1.55-5.07-3.52-6.68-1.05-.84-2.75-1.27-3.61-.21a7.72,7.72,0,0,0-.82,1.8,3,3,0,0,1-2.76,1.67C795.17,364.18,796.1,362.51,795.75,361.11Z"/><path class="cls-3" d="M831.15,380.88c-1.72-.21-2.06,9.11-3.8,9.12-.5,0-.41-2-.81-1.67s1,6.68.81,7.18c-.89,1.88.88-6.1,0-4.22-1.16,2.45-.63,3.26-1.23,5.92-1.33,5.85-8,10.09-6.61,15.92a149.87,149.87,0,0,1,3.42,19.41,32.24,32.24,0,0,1,.1,6.29c-.46,4.54-2.48,8.75-4.51,12.81-1.79,3.56-3.61,7.11-5.06,10.81a4.56,4.56,0,0,0-.4,2.95c.6,1.88,3,2.08,4.86,2.62,3.79,1.11,7,5,10.87,4.1,1.72-5.38,1.52-11.05,3-16.51s5.14-10.45,6.31-16.13a40.41,40.41,0,0,0,.59-7.12l.56-26.35a28.38,28.38,0,0,0-.15-4.7,29.27,29.27,0,0,0-1.23-4.7l-3-9.19C834.15,385,833.59,381.18,831.15,380.88Z"/><path class="cls-4" d="M832.39,380.88a41.42,41.42,0,0,0-5.22-.3,2.05,2.05,0,0,0-2.34,1.56l-2.66,5.62a38.24,38.24,0,0,0-2.92,7.6c-1.33,5.85.14,11.93,1.49,17.76a148,148,0,0,1,3.42,19.4,33.06,33.06,0,0,1,.11,6.29c-.47,4.55-2.49,8.75-4.52,12.82-1.79,3.56-3.6,7.1-5.06,10.81a4.46,4.46,0,0,0-.4,2.94c.6,1.88,3,2.08,4.87,2.62,3.78,1.11,7,5,10.87,4.1,1.72-5.38,1.51-11.05,3-16.5s5.15-10.45,6.31-16.14a39.37,39.37,0,0,0,.59-7.11L840.5,406a27.19,27.19,0,0,0-.16-4.69,29.06,29.06,0,0,0-1.21-4.71l-3-9.19C835.38,385,834.83,381.18,832.39,380.88Z"/></g></g></svg>