<svg xmlns="http://www.w3.org/2000/svg" viewBox="0 0 576.59 622.85"><defs><style>.cls-1{fill:#ec1c24;}.cls-2{fill:#c3161c;}.cls-3{isolation:isolate;font-size:16.79px;font-family:PalatinoLinotype-Bold, Palatino Linotype;font-weight:700;}</style></defs><title>muting lowe logo</title><g id="Layer_2" data-name="Layer 2"><g id="logo"><g id="fire"><path class="cls-1" d="M282.87,449.1c-84.7-2.7-152.6-71.9-152.6-156.9,0-86.7,70.6-156.9,157.7-156.9,1.4,0,2.8,0,4.2.1a276.86,276.86,0,0,1,16-25.7c46.5-67.7,8-100.9-2.4-108.2,79.6,50.1,33.1,129.2,33.1,129.2S386.47,50,303.37,0c0,0,20.2,20.2,4,45.2-24.2,46-110.6,58.1-111.4,98.4,0,0-21.8-27.4,11.3-52.5,0,0-107.3-12.1-111.4,125.9,0,0-16.9-18.6-11.3-48.4,0,0-44.4,31.5-31.5,97.6s57.3,94.4,70.2,96c0,0-21,12.1-47.6,0,0,0,4,77.5,134.8,74.2,0,0-26.6,14.5-51.6,15.3,0,0,17.8,25,65.4,33.9,42.6,8,53.6,39.2,55.4,45.6C267.57,486.8,276.67,460.6,282.87,449.1Z"/><path class="cls-2" d="M525.62,239.18s-14.5,21.8-31.5,33.1c0,0,35.5-85.5-50-133.1,0,0-10.5,24.2-37.9,32.3,0,0,26.6-43.6-12.9-86.3,0,0-10.5,36.3-55.7,45.2,0,0,46.6-79-33.1-129.2,10.5,7.3,48.9,40.5,2.4,108.2a264.2,264.2,0,0,0-16,25.7c85.1,2.2,153.5,71.6,153.5,156.9,0,86.7-70.6,156.9-157.7,156.9-1.7,0-3.4,0-5.1-.1-6.3,11.4-15.4,37.6-3.2,82.3.2.7.3,1.2.3,1.2s5.6-29.9,45.2-42,73.8-8.9,92.6-29.9c0,0-30.4,4.1-48.2-18.5,0,0,114.6,19.3,136.4-86.4,0,0-15.3,11.3-41.2,12.1C463.42,367.48,534.42,336.08,525.62,239.18Z"/></g><g id="lion"><path d="M260.84,251.6s14.1,4.8,15.5,12.2-24.8,24.2-25.2,31.2c0,0,11.6-12.6,18.2-17.6s10.5-10.1,10.3-13.8S268.64,252.4,260.84,251.6Z"/><path d="M306.14,266.9c12.3,6.1,18.2-.9,19.8-1.6,2.6-1.2,7.6-2.3,4.3-2.3s-7.4-4.5-14.3-3.9C309.24,259.7,306.14,266.9,306.14,266.9Z"/><path d="M326,295c-.4-7-26.7-23.8-25.2-31.2s15.5-12.2,15.5-12.2c-7.9.8-18.6,8.3-18.8,12s3.7,8.9,10.3,13.8S326,295,326,295Z"/><path d="M270.94,266.9s-3.1-7.2-9.9-7.9-11,3.9-14.3,3.9,1.8,1.2,4.3,2.3C252.74,266,258.64,273.1,270.94,266.9Z"/><path d="M288.54,146.4A146.6,146.6,0,1,0,435.14,293,146.62,146.62,0,0,0,288.54,146.4Zm-25.2,60.2c2.5-2.8-12.2-13.5-12.2-13.5,9.5-2.5,23.2,7.7,26.8,6.9s10.6-9.6,10.6-9.6,7,8.8,10.6,9.6,17.3-9.4,26.8-6.9c0,0-14.7,10.8-12.2,13.5s20.7-3.6,34.5,5c0,0-15.2.7-17.9,3.9a18.59,18.59,0,0,0-11.5,7.5c.1.2,0,.1,0,0a32.38,32.38,0,0,0-30.2-4.2,31.78,31.78,0,0,0-30.2,4.2c-.1.1-.1.2,0,0a19.44,19.44,0,0,0-11.5-7.5c-2.8-3.1-17.9-3.9-17.9-3.9C242.64,203,260.84,209.4,263.34,206.6Zm43.2,83.2c-4.1.4-10.6,1.4-13.2,3.6a8.41,8.41,0,0,1-1,.4,4.34,4.34,0,0,0-2.8,4.1c0,6,.1,11.9.1,17.2a5.22,5.22,0,0,0,2.9,4.7c6.7,3.3,21.5,10.7,22.4,13,1.1,3-4.4,9.4-9.9,10.2s-13.7-2.5-16.2-1.4c-.1,0-.1,0-.2-.1,0,.1-.1.1-.2.1-2.5-1.1-10.7,2.2-16.2,1.4s-11-7.2-9.9-10.2c.9-2.3,15.7-9.8,22.4-13a5.22,5.22,0,0,0,2.9-4.7c0-5.3,0-11.2.1-17.2a4.44,4.44,0,0,0-2.8-4.1,8.41,8.41,0,0,1-1-.4c-2.5-2.2-9.1-3.2-13.2-3.6a2.76,2.76,0,0,0-2.9,3.7,9.77,9.77,0,0,0,4.5,5.1c5.5,3,12.4,10.7,12.7,15.2s-21.8,13.2-24.8,12.4-12.1-17.4-19-29.4-20.7-30.2-5-40.4,26.5-32.7,27.6-33.1c19.3-7.7,24.7,2.5,24.7,2.5s.1,2.7.2,7.4c.1-4.6.2-7.4.2-7.4s5.5-10.2,24.7-2.5c1.1.4,11.9,22.9,27.6,33.1s1.9,28.4-5,40.4-16,28.5-19,29.4-25.1-8-24.8-12.4,7.2-12.1,12.7-15.2a9.77,9.77,0,0,0,4.5-5.1A3,3,0,0,0,306.54,289.8Zm-66.3-40.5c-15-10.4-11.3-28.4,0-31.4,9.5-2.5,18.1,6.9,18.1,6.9C251.64,237.5,240.24,249.3,240.24,249.3Zm78.6-24.5s8.6-9.4,18.1-6.9c11.3,3,15,21,0,31.4C336.94,249.3,325.44,237.5,318.84,224.8Zm65.5,96.7s-20.4-20.7-27.3-17.9,18.7,28.4,12.4,48.2c0,0-15.4-28.1-23.3-26.2s4.3,26.2,0,42.7-18.6,25.1-18.6,25.1,11.9-33.1,3.9-45.5-5.3,10.2-5.4,22.9-5.6,33.3-21.3,36.1c0,0,15.7-31.4,3-49.3s-10.7,45.5-19.2,49.3c-8.4-3.9-6.5-67.2-19.2-49.3s3,49.3,3,49.3c-15.7-2.8-21.2-23.4-21.3-36.1s2.6-35.3-5.4-22.9,3.9,45.5,3.9,45.5-14.3-8.5-18.6-25.1,7.9-40.8,0-42.7-23.3,26.2-23.3,26.2c-6.3-19.8,19.3-45.5,12.4-48.2s-27.3,17.9-27.3,17.9c-.8-24.3,30-41.9,24.3-46s-19.3,10.7-19.3,10.7c.3-19.6,22-36.4,18.7-36.9s-14.6,3.6-14.6,3.6c4.7-16.8,25.6-23.7,25.6-23.7a21.76,21.76,0,0,1,1.1-2.7c-1.4,5.9-.5,17.8,8,25.1l-7.7,5.2c-9.9,0-16.2,12.6-16.2,12.6s17.1-14.6,13-4.1,8.8,32.2,8.8,33.3-3.5,17.9-3.5,17.9,5.1-11,7.3-11,9.6,9.6,8.5,14.1,1.7,16.3,1.7,16.3,2.2-13.8,5-8.3,11,23.2,21.2,19.6,13.9.8,13.9.8,3.7-4.4,13.9-.8,18.5-14.1,21.2-19.6,5,8.3,5,8.3,2.8-11.9,1.7-16.3,6.3-14.1,8.5-14.1,7.3,11,7.3,11-3.5-16.8-3.5-17.9,13-22.9,8.8-33.3,13,4.1,13,4.1-6.3-12.6-16.2-12.6l-7.7-5.2c8.5-7.2,9.4-19.1,8-25.1a16.87,16.87,0,0,1,1.1,2.7s20.9,6.9,25.6,23.7c0,0-11.3-4.1-14.6-3.6s18.5,17.4,18.7,36.9c0,0-13.5-14.9-19.3-10.7S385.14,297.3,384.34,321.5Z"/></g><g id="name"><path d="M99.9,593.85l-.5.5q-5.25-.3-16.2-.3-11.25,0-16.2.3l-.5-.5v-3.6l.5-.5c3.6-.2,5.6-.4,6.2-.5a2.35,2.35,0,0,0,1.8-1.9c.5-2.5.7-8,.7-16.3v-35.6L64,559.55c-.7,1.3-2.9,6.2-6.8,14.7l-9.6,21.1H44.1c-1.8-4.4-4.3-9.8-7.4-16.5l-7.4-15.6-14-28.8V571c0,8.4.2,13.8.7,16.3a2.23,2.23,0,0,0,1.8,1.9c.5.1,2.6.3,6.2.5l.5.5v3.6l-.5.5c-4-.2-7.8-.3-11.3-.3-4,0-8.1.1-12.2.3l-.5-.5v-3.6l.5-.5c3.6-.2,5.6-.4,6.2-.5a2.35,2.35,0,0,0,1.8-1.9c.5-2.5.7-8,.7-16.3v-27.9c0-8.4-.2-13.8-.7-16.3a2.23,2.23,0,0,0-1.8-1.9c-.5-.1-2.6-.3-6.2-.5l-.5-.5v-3.6l.5-.5q5.55.3,13.8.3c4.3,0,8-.1,11.2-.3,1.2,2.7,2.8,6.4,4.9,11.3l3.4,7.3,16.7,35,8.1-16.3,12.6-26.9c1.5-3.2,2.9-6.6,4.3-10.3,4,.2,6.6.3,8,.3,6.9,0,12.1-.1,15.8-.3l.5.5V524l-.5.5c-3.6.2-5.6.4-6.2.5a2.35,2.35,0,0,0-1.8,1.9c-.5,2.5-.7,8-.7,16.3v27.9c0,8.4.2,13.8.7,16.3a2.23,2.23,0,0,0,1.8,1.9c.5.1,2.6.3,6.2.5l.5.5v3.6Z"/><path d="M163.1,593.75l-.5.5c-5.3-.2-8.6-.3-10-.3-1.2,0-2.9,0-5.2.1s-4,.1-5.1.1l-.4-.4a78.81,78.81,0,0,0,.4-8.2q-2.7,2.1-9.6,8.7a19.7,19.7,0,0,1-7.3,1.3c-4.7,0-8.5-1.3-11.2-3.9s-4.1-6.3-4.1-11.1c0-.6,0-1.9.1-3.8s.1-3.8.1-5.6v-6.7c0-7-.3-11-.8-12.1a2.92,2.92,0,0,0-2.3-1.3,43.2,43.2,0,0,0-4.6-.3l-.5-.5v-2.9l.5-.6a89.9,89.9,0,0,0,20.4-4.4l1.2.7c-.5,5.8-.7,11.2-.7,16.2v10.3a66.35,66.35,0,0,0,.5,9.8,7.05,7.05,0,0,0,7.8,6.4,11.17,11.17,0,0,0,7.2-2.6,8.45,8.45,0,0,0,3.1-6c.1-1.7.1-2.8.1-3.2v-9.4c0-6.9-.3-10.9-.8-12.1a2.72,2.72,0,0,0-2.2-1.3,43.2,43.2,0,0,0-4.6-.3l-.6-.5v-2.9l.6-.6a89.9,89.9,0,0,0,20.4-4.4l1.1.7c-.5,5.3-.7,10.7-.7,16.2v16.5q0,11.1.6,12.6a1.44,1.44,0,0,0,1.1.9,30,30,0,0,0,5.5.6l.6.5v3.3Z"/><text class="cls-3" transform="translate(548.61 526.75)">TM</text><path d="M197.1,587.15a27.31,27.31,0,0,1-2.3,2.2c-2.1,2-3.8,3.8-5.3,5.4a15.67,15.67,0,0,1-5.2.8c-4.9,0-8.4-1.4-10.7-4.3a9.94,9.94,0,0,1-1.9-4.3,40,40,0,0,1-.5-7.6l.2-12.6v-13H170l-2.8.1H165l-.6-.5V552l.4-.8c.6-.4,1.6-1.1,2.9-1.9a29.93,29.93,0,0,0,3.6-2.5v-7.2c0-3-.1-6.1-.4-9.5,2.6-.8,4.8-1.6,6.4-2.2s3.9-1.7,6.9-3.2l1.4,1.1c-.4,4.4-.7,8.2-.9,11.7l-.5,9.1h1.7a95.74,95.74,0,0,0,9.9-.4l.6.6-.7,6.2-.5.5h-11v17.8c0,5.7.1,9.1.2,10.1a5.33,5.33,0,0,0,1.9,3.6,6.53,6.53,0,0,0,4.3,1.4,14.68,14.68,0,0,0,5.2-1.2Z"/><path d="M227,593.85l-.5.5c-3.3-.2-8.1-.4-14.4-.4s-11.1.1-14.4.4l-.5-.5v-3.2l.5-.5c3.4-.1,5.5-.4,6.3-.8s1.1-1.2,1.2-2.5c.2-4.6.4-9.5.4-14.7v-7.5c0-6.8-.3-10.8-.8-12.1-.3-.7-1-1.1-2.3-1.3a40.76,40.76,0,0,0-4.6-.3l-.5-.5v-2.9l.5-.6a89.9,89.9,0,0,0,20.4-4.4l1.1.7c-.5,6.4-.7,11.8-.7,16.2v16.8c0,2.6.1,6.1.4,10.7.1,1.4.5,2.2,1.2,2.5s2.9.7,6.3.8l.6.5v3.1Zm-7.2-68.7a8,8,0,0,1-2.4,5.8,7.79,7.79,0,0,1-5.7,2.4A7.63,7.63,0,0,1,206,531a7.85,7.85,0,0,1-2.4-5.8,7.69,7.69,0,0,1,2.4-5.8,8.1,8.1,0,0,1,13.8,5.8Z"/><path d="M285.1,597.65c0,7.7-2.9,13.8-8.6,18.4s-13.2,6.8-22.5,6.8c-7.3,0-13-1.4-17.2-4.1s-6.3-6.4-6.3-11c0-3.1.7-5.4,2.1-7,.1-.2,2-1.3,5.6-3.5,1.7-1,3-1.7,3.8-2.2-4.8-.8-7.3-3.2-7.3-7a11.24,11.24,0,0,1,2.1-6.2c.1-.1,1.1-.8,2.8-2.1.8-.6,2.3-1.7,4.5-3.2-7.6-2.7-11.4-7.8-11.4-15.2a16.88,16.88,0,0,1,6.4-13.8c4.3-3.5,10-5.2,17.1-5.2,6.9,0,12.3,1.5,16.2,4.6,2.2.1,3.6.1,4.3.1q2.55-.15,7.8-.3l.6.6-.6,5.4-.6.5h-7.8a18.13,18.13,0,0,1,.7,5.2c0,8.4-4.1,14.1-12.2,17.1a30,30,0,0,1-10.8,2.1,45.4,45.4,0,0,1-4.6-.3c-2.2,1.2-3.3,2.8-3.3,4.7s1.3,2.8,3.8,3.1c1.5.1,3.9.2,7.4.2,1.1,0,3-.1,5.7-.2s4.7-.2,6-.2c7.9,0,12.9,1.8,14.8,5.3A16,16,0,0,1,285.1,597.65Zm-12.1,6c0-3.8-1.3-6.2-4-7.2a27.16,27.16,0,0,0-6.7-.7l-10-.1c-1.1,0-2.7,0-4.6.1-4.8,3-7.2,6.4-7.2,10.3a9.53,9.53,0,0,0,4.3,8.3c2.8,2,6.7,3,11.4,3,5.1,0,9.2-1.2,12.3-3.7A12.18,12.18,0,0,0,273,603.65Zm-9.6-42.8c0-8.8-3-13.3-8.9-13.3s-8.7,3.8-8.7,11.5c0,9.1,3,13.6,9.1,13.6C260.6,572.65,263.4,568.75,263.4,560.85Z"/><path d="M366.9,576.45a113.16,113.16,0,0,0-1.2,17.4l-.5.5-38.3-.3q-9.6,0-13.5.3l-.5-.5v-1.5l.3-.6c2.6-1.6,4-2.7,4.2-3.1.3-.6.5-3,.6-7l.2-11.8v-26.7c0-8.4-.2-13.8-.7-16.3a2.23,2.23,0,0,0-1.8-1.9c-.5-.1-2.6-.3-6.2-.5l-.5-.5v-3.6l.5-.5q5.4.3,15.9.3,10.8,0,16.5-.3l.5.5V524l-.5.5c-3.6.2-5.6.4-6.2.5a2.35,2.35,0,0,0-1.8,1.9c-.5,2.5-.7,8-.7,16.3v31.5c0,4.6.1,9.1.3,13.4h7.2c10.2,0,16.5-.4,18.8-1.2a1,1,0,0,0,.8-.6,7.85,7.85,0,0,0,1-3.2l1.3-6.5.5-.6h3.2Z"/><path d="M422.8,568c0,12.4-4.2,20.8-12.5,25.2a30.1,30.1,0,0,1-14,3.2c-8.1,0-14.2-2.3-18.5-7s-6.3-11.4-6.3-20.1c0-12,4.1-20.1,12.3-24.1a31.17,31.17,0,0,1,14.1-2.9c11.2,0,18.6,3.9,22.3,11.6A34.47,34.47,0,0,1,422.8,568Zm-14.6,4.3c0-8.7-1-15-2.9-18.8s-4.8-5.7-8.8-5.7q-10.5,0-10.5,18.9,0,24.3,11.7,24.3,7.35,0,9.3-8.1A35.13,35.13,0,0,0,408.2,572.25Z"/><path d="M511.8,548.05l-.6.5a17.78,17.78,0,0,0-3.9.4,2.69,2.69,0,0,0-1.4,1.2,36,36,0,0,0-2.2,5.3c-1.3,3.5-2.6,7.2-3.8,11l-6.1,18.3c-.5,1.5-1.1,3.3-1.6,5.2l-1.4,5h-8.6l-5.7-14.1-8.5-19.5c-4.8,10.1-9.2,19.9-13,29.2l-1.8,4.4h-8.5c-.1-.3-.4-1.6-.9-4-.3-1.4-.8-3.1-1.3-5.1l-7.7-27.6c-1.2-4.1-2-6.6-2.4-7.7a2.72,2.72,0,0,0-1.4-1.4c-.6-.3-2.3-.4-5.1-.6l-.5-.6v-3.1l.6-.5c2.7.1,7.3.2,13.6.2,6.5,0,11.3-.1,14.4-.2l.6.5v3.2l-.6.5a22.3,22.3,0,0,0-5.5.4,1.6,1.6,0,0,0-1.4,1.6,16,16,0,0,0,.5,3.1L454,578l12.3-28.2c.9-2.1,1.8-4.3,2.8-6.7h5.4l14.9,34.8,5.2-15.7c1.9-5.9,2.9-9.7,2.9-11.4,0-.9-.3-1.4-.9-1.6a38,38,0,0,0-5.9-.6l-.6-.5V545l.6-.6c2.6.1,6.3.2,11,.2,3.4,0,6.6-.1,9.5-.2l.6.5Z"/><path d="M557.7,564.45c0,.6,0,1.5-.1,2.7l-.6.7c-4.6,1.3-10.8,1.9-18.4,1.9-1.4,0-3.4,0-6.2.1s-4.9.1-6.3.1a19.73,19.73,0,0,0,4.8,12.8,15.37,15.37,0,0,0,12.2,5.4c3.4,0,7.4-1.2,12-3.5l1.3,1.5-2.3,5.2a30.16,30.16,0,0,1-16.7,4.9c-7.9,0-14-2.2-18.4-6.7s-6.6-10.8-6.6-19.1c0-9.8,2.3-16.5,7-20.1,6.5-5,12.6-7.5,18.4-7.5,6.3,0,11.1,1.8,14.6,5.4C555.9,552.15,557.7,557.55,557.7,564.45Zm-13.8-1.3c0-9.5-2.9-14.2-8.8-14.2q-9.3,0-9.3,14.1v1.2a84,84,0,0,0,10.8.5,53.45,53.45,0,0,0,7.3-.5Z"/><circle cx="385.5" cy="528.75" r="6.6"/><circle cx="408.8" cy="528.75" r="6.6"/></g></g></g></svg>